<svg xmlns="http://www.w3.org/2000/svg" width="600" height="300" viewBox="0 0 600 300">
  <defs>
    <linearGradient id="coralBlue" x1="0%" y1="0%" x2="100%" y2="0%">
      <stop offset="0%" style="stop-color:#FF5A36;stop-opacity:1" />
      <stop offset="50%" style="stop-color:#6366F1;stop-opacity:0.8" />
      <stop offset="100%" style="stop-color:#3B82F6;stop-opacity:0.6" />
    </linearGradient>
    <linearGradient id="coralBlueFill" x1="0%" y1="0%" x2="100%" y2="0%">
      <stop offset="0%" style="stop-color:#FF5A36;stop-opacity:0.3" />
      <stop offset="50%" style="stop-color:#6366F1;stop-opacity:0.15" />
      <stop offset="100%" style="stop-color:#3B82F6;stop-opacity:0.05" />
    </linearGradient>
  </defs>
  <rect width="600" height="300" fill="#0A0A0F"/>
  <g opacity="0.1">
    <pattern id="grid" width="30" height="30" patternUnits="userSpaceOnUse">
      <circle cx="1" cy="1" r="1" fill="#8A8AA0"/>
    </pattern>
    <rect width="600" height="300" fill="url(#grid)"/>
  </g>
  <path d="M 0,200 C 50,180 100,220 150,150 C 200,80 250,180 300,120 C 350,60 400,160 450,100 C 500,40 550,120 600,80 L 600,250 L 0,250 Z" fill="url(#coralBlueFill)"/>
  <path d="M 0,200 C 50,180 100,220 150,150 C 200,80 250,180 300,120 C 350,60 400,160 450,100 C 500,40 550,120 600,80" stroke="url(#coralBlue)" stroke-width="2" fill="none"/>
  <path d="M 0,220 C 80,200 160,240 240,170 C 320,100 400,200 480,140 C 520,110 560,150 600,130" stroke="#FF5A36" stroke-width="1.5" fill="none" opacity="0.5"/>
  <path d="M 0,180 C 100,160 200,200 300,130 C 400,60 500,160 600,100" stroke="#6366F1" stroke-width="1.5" fill="none" opacity="0.4"/>
  <circle cx="150" cy="150" r="3" fill="#FF5A36"/>
  <circle cx="300" cy="120" r="3" fill="#6366F1"/>
  <circle cx="450" cy="100" r="3" fill="#3B82F6"/>
</svg>